<?xml version="1.0" encoding="UTF-8"?>
<svg width="85px" height="92px" viewBox="0 0 85 92" version="1.1" xmlns="http://www.w3.org/2000/svg" xmlns:xlink="http://www.w3.org/1999/xlink">
    <!-- Generator: sketchtool 40.3 (33839) - http://www.bohemiancoding.com/sketch -->
    <title>F109D4E4-01FC-47AB-A0FF-F71C5E2BA9EA</title>
    <desc>Created with sketchtool.</desc>
    <defs></defs>
    <g id="Studydrive-LP" stroke="none" stroke-width="1" fill="none" fill-rule="evenodd">
        <g transform="translate(-472.000000, -1255.000000)" id="Section-1">
            <g transform="translate(184.000000, 962.000000)">
                <g id="Icon-1" transform="translate(288.000000, 293.000000)">
                    <g>
                        <g id="Group-5">
                            <path d="M16.70909,12.0916204 L8.40908865,16.8910657 C3.81136171,19.5540292 0.0337969739,26.0907299 0.0337969739,31.4173285 L0.0337969739,31.7208613 L16.70909,22.0883942 L16.70909,12.0916204 L16.70909,12.0916204 L16.70909,12.0916204 Z" id="Shape" fill="#76ACD5"></path>
                            <path d="M59.2270217,46.3240146 L84.1049407,31.9421314 L84.1049407,31.418 C84.1049407,26.0914015 80.3133218,19.5540292 75.7172679,16.8907299 L59.1246269,7.28713869 L59.1594277,46.2884234 L59.2270217,46.3240146 L59.2270217,46.3240146 Z" id="Shape" fill="#76ACD5"></path>
                            <path d="M17.0751682,22.3103358 L17.417488,22.1068613 L58.7605565,46.0688321 L58.9051139,7.16794161 L50.3973113,2.23956204 C45.7995843,-0.423737226 38.2946484,-0.423737226 33.6975907,2.23956204 L16.7087554,12.0919562 L16.7087554,22.0887299 L17.0751682,22.3103358 L17.0751682,22.3103358 Z" id="Shape" fill="#4791C8"></path>
                            <polygon id="Shape" fill="#1A75BA" points="59.3069967 46.388146 59.1965709 46.3240146 59.1353348 46.2887591 58.7558718 46.0691679 17.4091224 22.1065255 17.0587716 22.3106715 0.0337969739 32.1764964 0.0337969739 60.5907299 17.4104609 70.660365"></polygon>
                            <path d="M17.608558,70.6788321 L17.5085056,80.468438 L33.7317223,89.8981022 C38.3291146,92.5607299 46.0381709,92.5607299 50.6352286,89.8981022 L59.787516,84.7027883 L59.787516,46.4106423 L17.608558,70.6788321 L17.608558,70.6788321 Z" id="Shape" fill="#76ACD5"></path>
                            <path d="M0.0337969739,60.8039416 C0.0729479238,66.1150949 3.81571181,72.5974015 8.38867662,75.2465985 L17.1949634,80.3478978 L17.2314373,70.6788321 L0.0337969739,60.8039416 L0.0337969739,60.8039416 Z" id="Shape" fill="#4791C8"></path>
                            <polygon id="Shape" fill="#1A75BA" points="59.966205 46.383781 84.1049407 60.3701314 84.1049407 32.3967591"></polygon>
                            <path d="M59.7868468,84.7041314 L75.9290846,75.2462628 C80.5258077,72.5832993 84.1049407,66.0465985 84.1049407,60.7196642 L84.1049407,60.5830073 L59.7868468,46.4099708 L59.7868468,84.7041314 L59.7868468,84.7041314 Z" id="Shape" fill="#4791C8"></path>
                        </g>
                        <path d="M49.0849465,37.5158613 C48.2741537,33.2442409 44.7606069,31.1430146 41.1794662,31.1430146 C37.4628029,31.1430146 35.0986879,33.1770876 35.0986879,35.7527518 C35.0986879,37.5836861 35.9088114,38.9401825 38.7470879,39.5502701 L48.1386312,41.6521679 C55.9765175,43.4142701 60.5712328,47.6858905 60.5712328,54.8719635 C60.5712328,64.567219 51.9901477,69.5849124 41.922665,69.5849124 C31.7196597,69.5849124 23.3416911,64.7042117 22.125,55.8218467 L33.6112864,53.584635 C34.7600489,58.2621971 38.0032199,60.2969416 42.5303413,60.2969416 C46.7194929,60.2969416 49.2191305,58.3985182 49.2191305,55.6193796 C49.2191305,53.5839635 48.2734845,52.296635 45.0299788,51.6177153 L35.5708416,49.582635 C29.0838304,48.0921679 23.4079465,44.7022701 23.4079465,36.431 C23.4079465,27.6171314 30.7047466,22.125 41.312981,22.125 C51.1800242,22.1246642 58.3419711,27.0073796 60.0308159,35.2779781 L49.0849465,37.5158613 Z" id="Shape" fill="#FFFFFF"></path>
                    </g>
                </g>
            </g>
        </g>
    </g>
</svg>